<?xml version="1.0" standalone="no"?>
<!DOCTYPE svg PUBLIC "-//W3C//DTD SVG 20010904//EN"
 "http://www.w3.org/TR/2001/REC-SVG-20010904/DTD/svg10.dtd">
<svg version="1.0" xmlns="http://www.w3.org/2000/svg"
 width="204.000000pt" height="204.000000pt" viewBox="0 0 204.000000 204.000000"
 preserveAspectRatio="xMidYMid meet">
<metadata>
Created by potrace 1.11, written by Peter Selinger 2001-2013
</metadata>
<g transform="translate(0.000000,204.000000) scale(0.100000,-0.100000)"
fill="#000000" stroke="none">
<path d="M1461 2014 c-171 -46 -320 -188 -372 -353 -25 -83 -32 -210 -14 -294
32 -151 144 -293 285 -360 97 -46 151 -56 274 -52 121 3 225 33 310 89 97 65
95 60 93 269 l-2 182 -115 0 -115 0 -5 -145 -5 -144 -50 -19 c-34 -14 -76 -20
-132 -20 -69 0 -91 5 -137 27 -106 52 -168 157 -168 287 -1 82 14 135 55 196
98 147 305 177 460 67 26 -19 49 -34 52 -34 2 0 31 39 64 86 l60 87 -37 29
c-54 44 -143 86 -214 103 -79 19 -216 18 -287 -1z"/>
<path d="M429 1963 c-66 -155 -113 -263 -128 -298 -61 -135 -291 -672 -293
-684 -2 -12 18 -15 115 -16 70 0 122 4 126 10 5 5 26 51 47 100 20 50 42 96
47 103 7 9 60 12 224 10 l215 -3 44 -105 c25 -57 47 -107 50 -109 9 -10 244
-7 244 2 0 5 -100 240 -222 522 l-222 513 -113 1 -113 2 -21 -48z m254 -557
c1 -6 -51 -10 -120 -11 -68 0 -123 3 -123 6 0 7 81 198 111 262 12 27 14 24
71 -110 33 -76 60 -142 61 -147z"/>
<path d="M5 821 c-3 -2 -5 -15 -5 -28 0 -21 4 -23 38 -19 l37 3 0 -331 c-1
-182 -4 -341 -9 -353 -6 -20 -40 -40 -59 -35 -5 1 -7 -8 -5 -20 3 -22 6 -23
108 -23 110 0 107 -1 101 44 0 5 -18 9 -38 8 l-38 -2 -3 300 c-2 183 1 296 6
290 5 -5 96 -127 202 -270 106 -143 213 -288 239 -322 40 -53 50 -62 79 -63
l32 0 0 268 c1 450 1 465 19 489 9 12 26 23 39 23 16 0 22 6 22 23 0 23 -2 23
-102 21 -125 -2 -117 0 -113 -21 2 -10 4 -21 4 -25 1 -4 18 -6 39 -4 l37 3 0
-304 c0 -166 -1 -303 -2 -303 -2 0 -113 147 -248 327 l-246 327 -65 1 c-35 1
-67 -1 -69 -4z"/>
<path d="M879 818 c-6 -37 -3 -43 24 -43 16 -1 32 -7 37 -15 4 -8 63 -181 130
-383 111 -332 125 -368 144 -365 17 3 35 48 118 302 54 165 99 300 101 302 1
1 26 -66 55 -149 164 -473 156 -452 181 -452 27 0 16 -27 159 391 55 160 108
306 117 324 11 21 30 38 56 48 26 10 39 21 39 34 0 16 -10 18 -120 18 l-120 0
0 -25 c0 -26 5 -28 56 -27 l30 1 -95 -289 c-52 -159 -97 -287 -100 -285 -2 3
-50 144 -106 313 -129 391 -120 385 -204 125 -33 -103 -76 -235 -94 -293 -19
-58 -37 -114 -39 -125 -4 -17 -7 -16 -18 10 -20 48 -147 427 -155 463 -9 42
14 79 52 84 19 2 29 9 31 23 3 20 -2 21 -138 21 -77 -1 -141 -4 -141 -8z"/>
</g>
</svg>
