<svg id="Layer_1" data-name="Layer 1" xmlns="http://www.w3.org/2000/svg" viewBox="0 0 360 144"><defs><style>.cls-1{fill:#f33;}.cls-2{fill:#6d6e71;}</style></defs><title>AG_NW_logos_1</title><path d="M64.12,80.9l-3.51-8.15H44.79L41.28,80.9h-9L48.62,43.15h8.15L73.08,80.9h-9ZM52.73,54.38L48,65.34h9.45Z"/><path d="M108.07,55.68q0,9.07-7.18,11.72l9.56,13.5H100.08l-8.37-12H85.88v12H77.46V43.15H91.77q8.8,0,12.55,3T108.07,55.68ZM97.92,60.16a5.71,5.71,0,0,0,1.57-4.46q0-3.05-1.62-4.19T92.2,50.39H85.88V61.56H92Q96.36,61.56,97.92,60.16Z"/><path d="M131.94,50.44V80.9h-8.42V50.44H112.83V43.15h29.81v7.29H131.94Z"/><path class="cls-1" d="M187.56,61.67H196V75.06q-5.62,6.27-15.55,6.26a19.2,19.2,0,0,1-14-5.51,18.61,18.61,0,0,1-5.64-13.9,18.79,18.79,0,0,1,5.75-14,19.14,19.14,0,0,1,13.88-5.62,20.53,20.53,0,0,1,14.12,5.35l-4.37,6.32a16.72,16.72,0,0,0-4.67-3.05,12.54,12.54,0,0,0-4.62-.84,11.06,11.06,0,0,0-8.1,3.27,11.59,11.59,0,0,0-3.29,8.61,11.68,11.68,0,0,0,3.16,8.56,10.2,10.2,0,0,0,7.53,3.21A14.46,14.46,0,0,0,187.56,72V61.67Z"/><path class="cls-1" d="M213.54,71.15a6.9,6.9,0,0,0,5.67,2.62,6.82,6.82,0,0,0,5.64-2.62A11.21,11.21,0,0,0,226.93,64V43.15h8.42V64.26q0,8.21-4.54,12.61a17.51,17.51,0,0,1-23.25,0Q203,72.42,203,64.26V43.15h8.42V64A11.11,11.11,0,0,0,213.54,71.15Z"/><path class="cls-1" d="M244.1,43.15h8.42V80.9H244.1V43.15Z"/><path class="cls-1" d="M290.65,48.09Q296,53,296,61.83t-5.26,13.93q-5.26,5.13-16.07,5.13H261.81V43.15h13.34Q285.25,43.15,290.65,48.09Zm-6.18,22.44q3.11-2.92,3.11-8.48t-3.11-8.56q-3.11-3-9.53-3h-4.7V73.44h5.35Q281.36,73.44,284.46,70.53Z"/><path class="cls-1" d="M330.55,43.15v7.51H311.76v7.78h16.9v7.18h-16.9v7.83h19.39V80.9H303.34V43.15h27.22Z"/><path class="cls-2" d="M60.07,118.84H57.85L37.88,92H37.81L38,111.71q0,1.19,0,2.33t-0.08,2.24l3.32-.18v2H32.78v-1.5a3.17,3.17,0,0,0,1.66-.37,2.51,2.51,0,0,0,.91-0.91,3.15,3.15,0,0,0,.38-1.17,9.61,9.61,0,0,0,.08-1.17l0-25.26-3.08.2v-2h5.48L57.85,112.1h0l0-21.07q0-1.93.13-3.33l-3.3.2v-2h8.47v1.5a3.7,3.7,0,0,0-1.94.48,2.31,2.31,0,0,0-.9,1.18,5.16,5.16,0,0,0-.25,1.75q0,1,0,2.25Z"/><path class="cls-2" d="M68.2,102a18.82,18.82,0,0,1,.43-3.93,18,18,0,0,1,1.3-3.87,17.06,17.06,0,0,1,2.2-3.52,15,15,0,0,1,3.1-2.87,14.74,14.74,0,0,1,4-1.94,16.46,16.46,0,0,1,5-.71,17.1,17.1,0,0,1,5.11.72,15.75,15.75,0,0,1,4.12,1.94,14.33,14.33,0,0,1,3.16,2.88,17.44,17.44,0,0,1,2.22,3.53,17.9,17.9,0,0,1,1.33,11.68,19,19,0,0,1-1.3,3.86,17,17,0,0,1-2.19,3.53,14.67,14.67,0,0,1-3.11,2.89,15.17,15.17,0,0,1-4,2,16.1,16.1,0,0,1-5,.72,18.51,18.51,0,0,1-5.27-.7,15.51,15.51,0,0,1-4.17-1.9A13.69,13.69,0,0,1,72,113.41a16.18,16.18,0,0,1-2.16-3.49A18,18,0,0,1,68.6,106,20.63,20.63,0,0,1,68.2,102Zm4.51-.84A21.21,21.21,0,0,0,74,108.27a18.47,18.47,0,0,0,1.62,3.34,12.22,12.22,0,0,0,2.31,2.76,10.75,10.75,0,0,0,3,1.88,9.63,9.63,0,0,0,3.74.7A9.88,9.88,0,0,0,91,114.8a11,11,0,0,0,2.2-2.36,14.77,14.77,0,0,0,1.57-2.92,17.22,17.22,0,0,0,1-3.34,18.44,18.44,0,0,0,.33-3.33,21.26,21.26,0,0,0-.36-3.69,19.66,19.66,0,0,0-1.06-3.79,18.1,18.1,0,0,0-1.71-3.3,12.59,12.59,0,0,0-2.34-2.67,10.53,10.53,0,0,0-3-1.79A9.44,9.44,0,0,0,84.06,87a9.59,9.59,0,0,0-5,1.26,11.27,11.27,0,0,0-3.55,3.28,14.83,14.83,0,0,0-2.12,4.55A18.78,18.78,0,0,0,72.71,101.15Z"/><path class="cls-2" d="M115.93,103.72q-0.76,0-1.55,0t-1.57-.08v9q0,1.26,0,2.16a13.24,13.24,0,0,1-.12,1.48l3.32-.18v2H105.62v-1.5a3.84,3.84,0,0,0,2-.47,2.3,2.3,0,0,0,.92-1.17,5.33,5.33,0,0,0,.28-1.76q0-1,0-2.24V91.05q0-.94,0-1.79t0.12-1.54l-3.32.2v-2l5.23-.07q2.63,0,5.3,0a26.87,26.87,0,0,1,5.69.64,11.5,11.5,0,0,1,3.89,1.63A6.46,6.46,0,0,1,128,90.67a7.92,7.92,0,0,1,.71,3.41,11.08,11.08,0,0,1-.36,2.75A7.34,7.34,0,0,1,127,99.5a9.09,9.09,0,0,1-2.64,2.25,14,14,0,0,1-4.3,1.53,7.15,7.15,0,0,1,1.62,1.67q0.72,1,1.57,2.36l3.14,4.93q0.58,0.92,1.12,1.72a7.69,7.69,0,0,0,1.18,1.38,5,5,0,0,0,1.44.92,4.8,4.8,0,0,0,1.88.34v1.5h-5.79a15,15,0,0,1-1.21-1.17q-0.54-.58-1-1.21T123,114.42q-0.45-.66-0.94-1.43L119,108.08q-0.31-.49-0.65-1.07t-0.72-1.16q-0.38-.58-0.81-1.13A9,9,0,0,0,115.93,103.72Zm-3.12-1.8,1.38,0.08a13.84,13.84,0,0,0,1.47,0,15.54,15.54,0,0,0,3.45-.48,7.51,7.51,0,0,0,2.7-1.29A5.86,5.86,0,0,0,123.56,98a8.14,8.14,0,0,0,.63-3.38,6.61,6.61,0,0,0-2-5.22q-2-1.76-6.23-1.76a3.86,3.86,0,0,0-2,.39,2.14,2.14,0,0,0-.92,1.11,5.11,5.11,0,0,0-.28,1.73q0,1,0,2.25v8.85Z"/><path class="cls-2" d="M159.48,95.61a23.6,23.6,0,0,0-.31-3.56,6.49,6.49,0,0,0-.94-2.52A4.1,4.1,0,0,0,156.4,88a7.43,7.43,0,0,0-2.92-.49l-3.89,0-0.07,25.06a35.18,35.18,0,0,1-.13,3.64l3.82-.18v2h-10.8v-1.5a3.63,3.63,0,0,0,1.93-.49,2.41,2.41,0,0,0,.92-1.2,5.24,5.24,0,0,0,.27-1.76v-2.18l0.07-23.33-4.76,0a5.62,5.62,0,0,0-2.46.48,3.94,3.94,0,0,0-1.63,1.47,7,7,0,0,0-.91,2.48,19.47,19.47,0,0,0-.28,3.54h-1.71l0.27-9.73h26.82l0.27,9.73h-1.73Z"/><path class="cls-2" d="M189.35,102.53l-16.46.2v9.9q0,1.26,0,2.16a13.24,13.24,0,0,1-.12,1.48l3.32-.18v2H165.7v-1.5a3.85,3.85,0,0,0,2-.47,2.3,2.3,0,0,0,.92-1.17,5.34,5.34,0,0,0,.28-1.77q0-1,0-2.24V91q0-.94,0-1.79T169,87.71l-3.32.2v-2H176v1.5a3.77,3.77,0,0,0-2,.48,2.36,2.36,0,0,0-.92,1.18,5.33,5.33,0,0,0-.28,1.75q0,1,0,2.25v7.65h16.46V91q0-1.94.13-3.33l-3.32.2v-2h10.35v1.5a3.79,3.79,0,0,0-1.94.48,2.34,2.34,0,0,0-.93,1.18,5.3,5.3,0,0,0-.28,1.75q0,1,0,2.25v19.57a35.22,35.22,0,0,1-.13,3.64l3.3-.18v2H186.16v-1.5a3.92,3.92,0,0,0,2-.47,2.29,2.29,0,0,0,.93-1.17,5.34,5.34,0,0,0,.28-1.77q0-1,0-2.24v-8.41Z"/><path class="cls-2" d="M200.22,85.89h11.16v1.53a7.88,7.88,0,0,0-2.12.34,1.86,1.86,0,0,0-1.09.85,2.7,2.7,0,0,0-.24,1.52,12.92,12.92,0,0,0,.46,2.3q1.28,4.2,3.22,9.83t2.28,6.58q0.34,1,.67,2h0.09q0.22-.76.49-1.64l0.53-1.71q0.26-.83,1.54-4.81t1.9-5.86l1.17-3.58q0.55-1.7,2.37-7.47h1.48q2.25,7.1,2.83,8.8t2.75,8.18q2.17,6.47,2.82,8.65h0.11q4.76-14.42,5.83-17.73t1.42-4.22a12.11,12.11,0,0,1,.8-1.7l-3.68.16v-2h9.34v1.53a8.54,8.54,0,0,0-1.93.42,3.21,3.21,0,0,0-1.36,1,8.29,8.29,0,0,0-1.14,2q-0.55,1.28-4,11.52t-5.59,16.19H231l-8.6-24.59-8.11,24.59H213q-8.6-25.67-8.93-26.6t-0.56-1.67q-0.24-.74-0.39-1.34t-0.25-1.11l-2.61.11v-2Z"/><path class="cls-2" d="M256.28,112.79q0,1.28,0,2.15a13,13,0,0,1-.12,1.45l8.8-.13a10.39,10.39,0,0,0,2.72-.37,5,5,0,0,0,2.08-1.17,5.35,5.35,0,0,0,1.34-2.18,10.5,10.5,0,0,0,.47-3.4h1.57l-0.27,9H249.09v-1.53a4.07,4.07,0,0,0,1.74-.35,2.21,2.21,0,0,0,1-.89,3.43,3.43,0,0,0,.39-1.34q0.08-.77.08-1.72V91q0-.94,0-1.79t0.12-1.54l-3.32.2v-2h22.12l0.22,8.06h-1.5a9.57,9.57,0,0,0-.46-3.23,4.85,4.85,0,0,0-1.26-2,4.23,4.23,0,0,0-1.88-1A10,10,0,0,0,264,87.5l-4.25.07a5.41,5.41,0,0,0-2,.4,2.19,2.19,0,0,0-1,1,4.22,4.22,0,0,0-.39,1.67q-0.06,1-.06,2.43v7.41h8.63l-0.34-4h2v9.68h-1.5a7.79,7.79,0,0,0-.24-2.15,2.54,2.54,0,0,0-.74-1.24,2.59,2.59,0,0,0-1.28-.57,11.14,11.14,0,0,0-1.87-.13h-0.65l-4,.16v10.53Z"/><path class="cls-2" d="M281.36,118.45H279l-0.27-9.79h1.77a9.66,9.66,0,0,0,.88,3.58,7.81,7.81,0,0,0,1.94,2.57,8.17,8.17,0,0,0,2.8,1.56,10.81,10.81,0,0,0,3.41.53,8.6,8.6,0,0,0,2.55-.37,6.29,6.29,0,0,0,2.11-1.1,5.22,5.22,0,0,0,1.44-1.81,5.54,5.54,0,0,0,.53-2.47,5.45,5.45,0,0,0-.74-2.9,7.82,7.82,0,0,0-2-2.14,16.28,16.28,0,0,0-2.79-1.69l-3.18-1.5q-1.62-.75-3.18-1.59a14.05,14.05,0,0,1-2.79-2,8.79,8.79,0,0,1-2-2.59,7.8,7.8,0,0,1-.74-3.53,8.59,8.59,0,0,1,.18-1.68,8.08,8.08,0,0,1,.59-1.8,8.27,8.27,0,0,1,1.1-1.74,6.8,6.8,0,0,1,1.72-1.48,9.16,9.16,0,0,1,2.45-1,12.65,12.65,0,0,1,3.28-.38,17.37,17.37,0,0,1,1.91.11,14.82,14.82,0,0,1,2.06.38,13.26,13.26,0,0,1,2.08.73,10.6,10.6,0,0,1,2,1.16l-0.18-2h2.34V95.63h-1.66A12.78,12.78,0,0,0,296,92.4a8.5,8.5,0,0,0-1.54-2.77A7.6,7.6,0,0,0,292,87.7a7.83,7.83,0,0,0-3.5-.73,6.83,6.83,0,0,0-2.54.44,5.38,5.38,0,0,0-1.84,1.18A5,5,0,0,0,283,90.31a5.61,5.61,0,0,0-.38,2.06,4.9,4.9,0,0,0,.75,2.73,7.82,7.82,0,0,0,2,2.06,17.27,17.27,0,0,0,2.81,1.64l3.21,1.5q1.64,0.75,3.21,1.62a14.38,14.38,0,0,1,2.81,2,9,9,0,0,1,2,2.64,7.85,7.85,0,0,1,.75,3.55,8.5,8.5,0,0,1-.72,3.52,7.7,7.7,0,0,1-2.09,2.76,9.88,9.88,0,0,1-3.38,1.81,14.79,14.79,0,0,1-4.57.65,16.1,16.1,0,0,1-2.12-.15,16.58,16.58,0,0,1-2.16-.44,14.1,14.1,0,0,1-2.07-.74,11.89,11.89,0,0,1-1.85-1Z"/><path class="cls-2" d="M329.63,95.61a23.6,23.6,0,0,0-.31-3.56,6.49,6.49,0,0,0-.94-2.52A4.1,4.1,0,0,0,326.55,88a7.43,7.43,0,0,0-2.92-.49l-3.89,0-0.07,25.06a35.18,35.18,0,0,1-.13,3.64l3.82-.18v2h-10.8v-1.5a3.63,3.63,0,0,0,1.93-.49,2.41,2.41,0,0,0,.92-1.2,5.24,5.24,0,0,0,.27-1.76v-2.18l0.07-23.33-4.76,0a5.62,5.62,0,0,0-2.46.48,3.94,3.94,0,0,0-1.63,1.47,7,7,0,0,0-.91,2.48,19.47,19.47,0,0,0-.28,3.54H304l0.27-9.73h26.82l0.27,9.73h-1.73Z"/></svg>