<?xml version="1.0" encoding="utf-8"?>
<!-- Generator: Adobe Illustrator 19.2.0, SVG Export Plug-In . SVG Version: 6.00 Build 0)  -->
<svg version="1.1" id="Layer_1" xmlns="http://www.w3.org/2000/svg" xmlns:xlink="http://www.w3.org/1999/xlink" x="0px" y="0px"
	 viewBox="0 0 570 51" style="enable-background:new 0 0 570 51;" xml:space="preserve">
<style type="text/css">
	.st0{fill:#FF3333;}
	.st1{fill:#6D6E71;}
</style>
<title>AG_NW_logos_1</title>
<path d="M33.9,42l-3-6.9H17.4l-3,6.9H6.8L20.7,9.9h7L41.5,42H33.9z M24.2,19.4l-4,9.3h8L24.2,19.4z"/>
<path d="M71.3,20.5c0,5.2-2,8.5-6.1,10L73.4,42h-8.8l-7.1-10.2h-5V42h-7.2V9.9h12.2c5,0,8.6,0.8,10.7,2.5
	C70.3,14.1,71.3,16.8,71.3,20.5z M62.7,24.4c1-1,1.4-2.4,1.3-3.8c0-1.7-0.5-2.9-1.4-3.6s-2.5-1-4.8-1h-5.4v9.5h5.2
	C60.1,25.5,61.8,25.2,62.7,24.4L62.7,24.4z"/>
<path d="M91.7,16.1V42h-7.2V16.1h-9.1V9.9h25.4v6.2L91.7,16.1L91.7,16.1z"/>
<path class="st0" d="M135.4,25.7h7.2v11.4c-3.2,3.6-7.6,5.3-13.2,5.3c-4.4,0.1-8.7-1.6-11.9-4.7c-3.2-3.1-4.9-7.4-4.8-11.8
	c-0.1-4.5,1.7-8.8,4.9-11.9c3.1-3.1,7.4-4.9,11.8-4.8c4.4-0.1,8.7,1.6,12,4.5l-3.7,5.4c-1.2-1.1-2.5-2-4-2.6
	c-1.3-0.5-2.6-0.7-3.9-0.7c-2.6-0.1-5.1,0.9-6.9,2.8c-1.9,2-2.9,4.6-2.8,7.3c-0.1,2.7,0.8,5.3,2.7,7.3c1.7,1.8,4,2.8,6.4,2.7
	c2.2,0.1,4.3-0.4,6.2-1.4L135.4,25.7L135.4,25.7z"/>
<path class="st0" d="M157.5,33.7c1.2,1.5,2.9,2.3,4.8,2.3c1.9,0.1,3.7-0.8,4.8-2.2c1.3-1.8,1.9-3.9,1.8-6.1V9.9h7.2v18
	c0,4.7-1.3,8.2-3.9,10.7c-5.6,5-14.2,5-19.8,0c-2.6-2.5-3.9-6.1-3.9-10.7v-18h7.2v17.7C155.6,29.8,156.2,32,157.5,33.7z"/>
<path class="st0" d="M183.5,9.9h7.2V42h-7.2V9.9z"/>
<path class="st0" d="M223.2,14.1c3.1,2.8,4.6,6.7,4.6,11.7c0,5-1.5,9-4.5,11.9c-3,2.9-7.5,4.3-13.7,4.3h-11V9.9H210
	C215.7,9.9,220.1,11.3,223.2,14.1z M217.9,33.2c1.8-1.7,2.6-4.1,2.6-7.2c0-3.2-0.9-5.6-2.6-7.3c-1.8-1.7-4.5-2.5-8.1-2.5h-4v19.5
	h4.6C213.6,35.7,216.2,34.8,217.9,33.2L217.9,33.2z"/>
<path class="st0" d="M257.2,9.9v6.4h-16v6.6h14.4V29h-14.4v6.7h16.5V42H234V9.9H257.2L257.2,9.9z"/>
<path class="st1" d="M299.8,42.8h-2.2l-20-26.8h-0.1l0.2,19.7c0,0.8,0,1.6,0,2.3s0,1.5-0.1,2.2l3.3-0.2v2h-8.4v-1.5
	c0.6,0,1.2-0.1,1.7-0.4c0.4-0.2,0.7-0.5,0.9-0.9c0.2-0.4,0.3-0.8,0.4-1.2c0.1-0.4,0.1-0.8,0.1-1.2V11.7l-3.1,0.2v-2h5.5L297.6,36
	l0,0V14.9c0-1.3,0-2.4,0.1-3.3l-3.3,0.2v-2h8.6v1.5c-0.7,0-1.3,0.1-1.9,0.5c-0.4,0.3-0.7,0.7-0.9,1.2c-0.2,0.6-0.3,1.2-0.2,1.8
	c0,0.7,0,1.4,0,2.2L299.8,42.8z"/>
<path class="st1" d="M307,25.9c0-1.3,0.1-2.6,0.4-3.9c0.3-1.3,0.7-2.6,1.3-3.9c0.6-1.3,1.4-2.4,2.3-3.5c0.9-1.1,1.9-2.1,3.1-2.9
	c1.2-0.8,2.6-1.5,4-1.9c1.6-0.5,3.3-0.7,5-0.7c1.7,0,3.5,0.2,5.1,0.7c1.5,0.4,2.8,1.1,4.1,1.9c1.2,0.8,2.3,1.8,3.2,2.9
	c0.9,1.1,1.6,2.3,2.2,3.5c1.7,3.6,2.2,7.7,1.3,11.7c-0.3,1.3-0.7,2.6-1.3,3.9c-0.6,1.3-1.3,2.4-2.2,3.5c-0.9,1.1-1.9,2.1-3.1,2.9
	c-1.2,0.9-2.6,1.5-4,2c-1.6,0.5-3.3,0.7-5,0.7c-1.8,0-3.6-0.2-5.3-0.7c-1.5-0.4-2.9-1.1-4.2-1.9c-1.2-0.8-2.2-1.7-3.1-2.8
	c-0.9-1.1-1.6-2.2-2.2-3.5c-0.6-1.2-1-2.6-1.2-3.9C307.1,28.7,307,27.3,307,25.9z M311.5,25.1c0,2.4,0.4,4.8,1.3,7.1
	c0.4,1.2,1,2.3,1.6,3.3c0.6,1,1.4,2,2.3,2.8c0.9,0.8,1.9,1.4,3,1.9c1.2,0.5,2.5,0.7,3.7,0.7c2.3,0,4.5-0.7,6.3-2.2
	c0.8-0.7,1.6-1.5,2.2-2.4c0.6-0.9,1.2-1.9,1.6-2.9c0.4-1.1,0.8-2.2,1-3.3c0.2-1.1,0.3-2.2,0.3-3.3c0-1.2-0.1-2.5-0.4-3.7
	c-0.2-1.3-0.6-2.6-1.1-3.8c-0.5-1.2-1-2.3-1.7-3.3c-0.6-1-1.4-1.9-2.3-2.7c-0.9-0.8-1.9-1.4-3-1.8c-1.1-0.4-2.3-0.7-3.5-0.7
	c-1.8,0-3.5,0.4-5,1.3c-1.4,0.8-2.6,1.9-3.5,3.3c-0.9,1.4-1.6,2.9-2,4.6C311.8,21.7,311.6,23.4,311.5,25.1L311.5,25.1z"/>
<path class="st1" d="M353.9,27.7c-0.5,0-1,0-1.5,0c-0.5,0-1,0-1.6-0.1v9c0,0.8,0,1.6,0,2.2c0,0.5-0.1,1-0.1,1.5L354,40v2h-10.4v-1.5
	c0.7,0,1.4-0.1,2-0.5c0.4-0.3,0.8-0.7,0.9-1.2c0.2-0.6,0.3-1.2,0.3-1.8c0-0.7,0-1.4,0-2.2V15c0-0.6,0-1.2,0-1.8s0-1.1,0.1-1.5
	l-3.3,0.2v-2l5.2-0.1c1.8,0,3.5,0,5.3,0c1.9,0,3.8,0.2,5.7,0.6c1.4,0.3,2.7,0.8,3.9,1.6c1,0.6,1.7,1.5,2.2,2.6
	c0.5,1.1,0.7,2.2,0.7,3.4c0,0.9-0.1,1.9-0.4,2.8c-0.3,1-0.7,1.9-1.3,2.7c-0.7,0.9-1.6,1.7-2.6,2.2c-1.3,0.8-2.8,1.3-4.3,1.6
	c0.6,0.5,1.2,1,1.6,1.7c0.5,0.7,1,1.5,1.6,2.4l3.1,4.9c0.4,0.6,0.8,1.2,1.1,1.7c0.3,0.5,0.7,1,1.2,1.4c0.4,0.4,0.9,0.7,1.4,0.9
	c0.6,0.2,1.2,0.4,1.9,0.3V42h-5.8c-0.4-0.4-0.8-0.8-1.2-1.2c-0.4-0.4-0.7-0.8-1-1.2s-0.6-0.8-1-1.3c-0.3-0.4-0.6-0.9-0.9-1.4L357,32
	c-0.2-0.3-0.4-0.7-0.6-1.1c-0.2-0.4-0.5-0.8-0.7-1.2c-0.3-0.4-0.5-0.8-0.8-1.1C354.5,28.3,354.2,28,353.9,27.7z M350.8,25.8l1.4,0.1
	c0.5,0,1,0,1.5,0c1.2,0,2.3-0.2,3.5-0.5c1-0.2,1.9-0.7,2.7-1.3c0.8-0.6,1.4-1.4,1.8-2.3c0.4-1.1,0.7-2.2,0.6-3.4
	c0.1-2-0.6-3.9-2-5.2c-1.3-1.2-3.4-1.8-6.2-1.8c-0.7-0.1-1.4,0.1-2,0.4c-0.4,0.3-0.8,0.6-0.9,1.1c-0.2,0.6-0.3,1.1-0.3,1.7
	c0,0.7,0,1.4,0,2.2L350.8,25.8L350.8,25.8z"/>
<path class="st1" d="M396.6,19.5c0-1.2-0.1-2.4-0.3-3.6c-0.1-0.9-0.5-1.8-0.9-2.5c-0.5-0.7-1.1-1.2-1.8-1.5
	c-0.9-0.4-1.9-0.5-2.9-0.5h-3.9l-0.1,25.1c0,1.2,0,2.4-0.1,3.6l3.8-0.2v2h-10.8v-1.5c0.7,0,1.3-0.2,1.9-0.5c0.4-0.3,0.8-0.7,0.9-1.2
	c0.2-0.6,0.3-1.2,0.3-1.8v-2.2l0.1-23.3h-4.8c-0.8,0-1.7,0.1-2.5,0.5c-0.7,0.3-1.2,0.8-1.6,1.5c-0.5,0.8-0.8,1.6-0.9,2.5
	c-0.2,1.2-0.3,2.4-0.3,3.5h-1.7l0.3-9.7H398l0.3,9.7L396.6,19.5L396.6,19.5z"/>
<path class="st1" d="M425.6,26.5l-16.5,0.2v9.9c0,0.8,0,1.6,0,2.2c0,0.5-0.1,1-0.1,1.5l3.3-0.2v2h-10.4v-1.5c0.7,0,1.4-0.1,2-0.5
	c0.4-0.3,0.8-0.7,0.9-1.2c0.2-0.6,0.3-1.2,0.3-1.8c0-0.7,0-1.4,0-2.2V15c0-0.6,0-1.2,0-1.8s0-1.1,0.1-1.5l-3.3,0.2v-2h10.4v1.5
	c-0.7,0-1.4,0.1-2,0.5c-0.4,0.3-0.7,0.7-0.9,1.2c-0.2,0.6-0.3,1.2-0.3,1.8c0,0.7,0,1.4,0,2.2v7.7h16.5V15c0-1.3,0-2.4,0.1-3.3
	l-3.3,0.2v-2h10.4v1.5c-0.7,0-1.3,0.1-1.9,0.5c-0.4,0.3-0.8,0.7-0.9,1.2c-0.2,0.6-0.3,1.2-0.3,1.8c0,0.7,0,1.4,0,2.2v19.5
	c0,1.2,0,2.4-0.1,3.6l3.3-0.2v2h-10.4v-1.5c0.7,0,1.4-0.1,2-0.5c0.4-0.3,0.8-0.7,0.9-1.2c0.2-0.6,0.3-1.2,0.3-1.8c0-0.7,0-1.4,0-2.2
	L425.6,26.5L425.6,26.5z"/>
<path class="st1" d="M435.6,9.8h11.2v1.5c-0.7,0-1.4,0.1-2.1,0.3c-0.5,0.1-0.8,0.4-1.1,0.8c-0.2,0.5-0.3,1-0.2,1.5
	c0.1,0.8,0.2,1.5,0.5,2.3c0.9,2.8,1.9,6.1,3.2,9.8c1.3,3.8,2.1,5.9,2.3,6.6c0.2,0.7,0.5,1.3,0.7,2h0.1c0.1-0.5,0.3-1.1,0.5-1.6
	l0.5-1.7c0.2-0.6,0.7-2.2,1.5-4.8s1.5-4.6,1.9-5.9l1.2-3.6c0.4-1.1,1.2-3.6,2.4-7.5h1.5c1.5,4.7,2.4,7.7,2.8,8.8
	c0.4,1.1,1.3,3.9,2.8,8.2c1.4,4.3,2.4,7.2,2.8,8.7h0.1c3.2-9.6,5.1-15.5,5.8-17.7c0.7-2.2,1.2-3.6,1.4-4.2c0.2-0.6,0.5-1.2,0.8-1.7
	l-3.7,0.2v-2h9.3v1.5c-0.7,0.1-1.3,0.2-1.9,0.4c-0.5,0.2-1,0.6-1.4,1c-0.5,0.6-0.9,1.3-1.1,2c-0.4,0.9-1.7,4.7-4,11.5
	c-2.3,6.8-4.2,12.2-5.6,16.2h-1.4l-8.6-24.6l-8.1,24.6h-1.3c-5.7-17.1-8.7-26-8.9-26.6s-0.4-1.2-0.6-1.7c-0.2-0.5-0.3-0.9-0.4-1.3
	c-0.1-0.4-0.2-0.8-0.2-1.1l-2.6,0.1V9.8L435.6,9.8z"/>
<path class="st1" d="M490.8,36.7c0,0.9,0,1.6,0,2.2c0,0.5-0.1,1-0.1,1.4l8.8-0.1c0.9,0,1.8-0.1,2.7-0.4c0.8-0.2,1.5-0.6,2.1-1.2
	c0.6-0.6,1.1-1.4,1.3-2.2c0.3-1.1,0.5-2.2,0.5-3.4h1.6l-0.3,9h-23.8v-1.6c0.6,0,1.2-0.1,1.7-0.3c0.4-0.2,0.8-0.5,1-0.9
	c0.2-0.4,0.4-0.9,0.4-1.3c0.1-0.5,0.1-1.1,0.1-1.7V15c0-0.6,0-1.2,0-1.8s0-1.1,0.1-1.5l-3.3,0.2v-2h22.1l0.2,8.1h-1.5
	c0-1.1-0.1-2.2-0.5-3.2c-0.2-0.8-0.7-1.4-1.3-2c-0.5-0.5-1.2-0.8-1.9-1c-0.8-0.2-1.6-0.3-2.3-0.3l-4.2,0.1c-0.7,0-1.4,0.1-2,0.4
	c-0.4,0.2-0.8,0.6-1,1c-0.2,0.5-0.4,1.1-0.4,1.7c0,0.7-0.1,1.5-0.1,2.4v7.4h8.6l-0.3-4h2v9.7h-1.5c0-0.7-0.1-1.4-0.2-2.2
	c-0.1-0.5-0.4-0.9-0.7-1.2c-0.4-0.3-0.8-0.5-1.3-0.6c-0.6-0.1-1.2-0.1-1.9-0.1h-0.6l-4,0.2L490.8,36.7L490.8,36.7z"/>
<path class="st1" d="M515,42.4h-2.4l-0.3-9.8h1.8c0.1,1.2,0.4,2.5,0.9,3.6c0.5,1,1.1,1.9,1.9,2.6c0.8,0.7,1.8,1.2,2.8,1.6
	c1.1,0.4,2.3,0.5,3.4,0.5c0.9,0,1.7-0.1,2.5-0.4c0.8-0.2,1.5-0.6,2.1-1.1c0.6-0.5,1.1-1.1,1.4-1.8c0.4-0.8,0.5-1.6,0.5-2.5
	c0-1-0.2-2-0.7-2.9c-0.5-0.9-1.2-1.6-2-2.2c-0.9-0.7-1.8-1.2-2.8-1.7l-3.2-1.5c-1.1-0.5-2.1-1-3.2-1.6c-1-0.6-1.9-1.2-2.8-2
	c-0.8-0.7-1.5-1.6-2-2.6c-0.5-1.1-0.8-2.3-0.7-3.5c0-0.6,0.1-1.1,0.2-1.7c0.1-0.6,0.3-1.2,0.6-1.8c0.3-0.6,0.7-1.2,1.1-1.7
	c0.5-0.6,1.1-1,1.8-1.4c0.8-0.5,1.6-0.8,2.5-1c1.1-0.3,2.2-0.4,3.3-0.4c0.6,0,1.3,0,1.9,0.1c0.7,0.1,1.4,0.2,2.1,0.4
	c0.7,0.2,1.4,0.4,2.1,0.7c0.7,0.3,1.4,0.7,2,1.2l-0.2-2h2.3v10.1h-1.7c-0.1-1.1-0.3-2.2-0.6-3.2c-0.3-1-0.9-2-1.5-2.8
	c-0.7-0.8-1.5-1.5-2.5-1.9c-1.1-0.5-2.3-0.8-3.5-0.7c-0.9,0-1.7,0.1-2.5,0.4c-0.7,0.3-1.3,0.7-1.8,1.2c-0.5,0.5-0.9,1.1-1.1,1.7
	c-0.3,0.7-0.4,1.4-0.4,2.1c0,1,0.2,1.9,0.8,2.7c0.5,0.8,1.2,1.5,2,2.1c0.9,0.6,1.8,1.2,2.8,1.6l3.2,1.5c1.1,0.5,2.2,1,3.2,1.6
	c1,0.6,2,1.2,2.8,2c0.8,0.7,1.5,1.6,2,2.6c0.5,1.1,0.7,2.3,0.7,3.5c0,1.2-0.2,2.4-0.7,3.5c-0.5,1.1-1.2,2-2.1,2.8
	c-1,0.8-2.1,1.4-3.4,1.8c-1.5,0.5-3,0.7-4.6,0.7c-0.7,0-1.4-0.1-2.1-0.2c-0.7-0.1-1.5-0.2-2.2-0.4c-0.7-0.2-1.4-0.4-2.1-0.7
	c-0.6-0.3-1.3-0.6-1.8-1L515,42.4z"/>
<path class="st1" d="M562.4,19.5c0-1.2-0.2-2.4-0.4-3.5c-0.1-0.9-0.5-1.8-0.9-2.5c-0.4-0.7-1.1-1.2-1.8-1.5
	c-0.9-0.4-1.9-0.5-2.9-0.5h-3.9l-0.1,25.1c0,1.2,0,2.4-0.1,3.6l3.8-0.2v2h-10.8v-1.5c0.7,0,1.3-0.2,1.9-0.5c0.4-0.3,0.8-0.7,0.9-1.2
	c0.2-0.6,0.3-1.2,0.3-1.8v-2.2l0.1-23.3h-4.8c-0.8,0-1.7,0.1-2.5,0.5c-0.7,0.3-1.2,0.8-1.6,1.5c-0.5,0.8-0.8,1.6-0.9,2.5
	c-0.2,1.2-0.3,2.4-0.3,3.5h-1.7l0.3-9.7h26.8l0.3,9.7L562.4,19.5L562.4,19.5z"/>
</svg>
