<svg id="Layer_1" data-name="Layer 1" xmlns="http://www.w3.org/2000/svg" viewBox="0 0 97.9 97.61"><defs><style>.cls-1{fill:#6d6e71;}.cls-2{fill:#231f20;}.cls-3{fill:#f33;}</style></defs><title>AG_NW_logo_mobile</title><path class="cls-1" d="M63.8,131.4H61.1L37,99H36.9l0.2,23.8v2.8a24.37,24.37,0,0,1-.1,2.7l4-.2v2.4H30.8v-1.8a4.48,4.48,0,0,0,2-.4,2.91,2.91,0,0,0,1.1-1.1,5.78,5.78,0,0,0,.5-1.4,6.6,6.6,0,0,0,.1-1.4V93.9l-3.7.2V91.7h6.6l23.7,31.6h0.1l0.1-25.4c0-1.6.1-2.9,0.2-4l-4,.2V91.7H67.7v1.8a4.65,4.65,0,0,0-2.3.6,2.59,2.59,0,0,0-1.1,1.4,7.61,7.61,0,0,0-.3,2.1v2.7Z" transform="translate(-30.8 -33.79)"/><path class="cls-1" d="M72.9,91.7H86.4v1.8a11.7,11.7,0,0,0-2.6.4,2.56,2.56,0,0,0-1.3,1,2.89,2.89,0,0,0-.3,1.8,14,14,0,0,0,.6,2.8c1,3.4,2.3,7.3,3.9,11.9s2.5,7.2,2.8,7.9,0.5,1.6.8,2.4h0.1c0.2-.6.4-1.3,0.6-2l0.6-2.1c0.2-.7.8-2.6,1.9-5.8s1.8-5.6,2.3-7.1l1.4-4.3c0.4-1.3,1.4-4.3,2.9-9h1.8c1.8,5.7,2.9,9.3,3.4,10.6s1.6,4.7,3.3,9.9,2.9,8.7,3.4,10.4h0.1c3.8-11.6,6.2-18.7,7-21.4s1.4-4.4,1.7-5.1a12.45,12.45,0,0,1,1-2l-4.4.2V91.5h11.3v1.8a8.56,8.56,0,0,0-2.3.5,3.77,3.77,0,0,0-1.6,1.2,9.46,9.46,0,0,0-1.4,2.4c-0.4,1-2,5.7-4.8,13.9s-5,14.8-6.8,19.5H110L99.6,101.1l-9.8,29.7H88.2C81.3,110.4,77.7,99.7,77.5,99s-0.5-1.4-.7-2-0.3-1.1-.5-1.6S76.1,94.5,76,94l-3.1.1V91.7Z" transform="translate(-30.8 -33.79)"/><path class="cls-2" d="M72.9,84.9L68.3,74.1h-21L42.6,84.9H30.8l21.6-50H63.2l21.6,50H72.9ZM57.8,49.8L51.5,64.3H64Z" transform="translate(-30.8 -33.79)"/><path class="cls-3" d="M117.3,59.5h11.2V77.2c-5,5.5-11.8,8.3-20.6,8.3a25.49,25.49,0,0,1-18.5-7.3,24.52,24.52,0,0,1-7.5-18.4,25.62,25.62,0,0,1,26-26,27,27,0,0,1,18.7,7.1l-5.8,8.4a21.28,21.28,0,0,0-6.2-4,15.72,15.72,0,0,0-6.1-1.1,14.71,14.71,0,0,0-10.7,4.3,15.45,15.45,0,0,0-4.4,11.4c0,4.7,1.4,8.5,4.2,11.3a13.08,13.08,0,0,0,10,4.2,18.61,18.61,0,0,0,9.6-2.2l0.1-13.7h0Z" transform="translate(-30.8 -33.79)"/></svg>