<?xml version="1.0" encoding="utf-8"?>
<!-- Generator: Adobe Illustrator 19.2.0, SVG Export Plug-In . SVG Version: 6.00 Build 0)  -->
<svg version="1.1" id="Layer_1" xmlns="http://www.w3.org/2000/svg" xmlns:xlink="http://www.w3.org/1999/xlink" x="0px" y="0px"
	 viewBox="0 0 312 87" style="enable-background:new 0 0 312 87;" xml:space="preserve">
<style type="text/css">
	.st0{fill:#FF3333;}
	.st1{fill:#6D6E71;}
</style>
<title>AG_NW_logos_1</title>
<path d="M40.1,43.9l-3.5-8.2H20.8l-3.5,8.2h-9L24.6,6.2h8.1l16.3,37.8H40.1L40.1,43.9z M28.7,17.4l-4.7,11h9.5L28.7,17.4z"/>
<path d="M84.1,18.7c0,6-2.4,10-7.2,11.7l9.6,13.5H76.1l-8.4-12h-5.8v12h-8.4V6.2h14.3c5.9,0,10.1,1,12.6,3
	C82.8,11.2,84.1,14.3,84.1,18.7z M73.9,23.2c1.1-1.2,1.7-2.8,1.6-4.5c0-2-0.5-3.4-1.6-4.2c-1.1-0.8-3-1.1-5.7-1.1h-6.3v11.2H68
	C70.9,24.6,72.9,24.1,73.9,23.2z"/>
<path d="M107.9,13.4v30.5h-8.4V13.4H88.8V6.2h29.8v7.3C118.6,13.4,107.9,13.4,107.9,13.4z"/>
<path class="st0" d="M163.6,24.7h8.4v13.4c-3.7,4.2-8.9,6.3-15.6,6.3c-5.2,0.1-10.3-1.8-14-5.5c-3.7-3.6-5.8-8.7-5.6-13.9
	c-0.1-5.3,2-10.3,5.8-14c3.7-3.7,8.7-5.7,13.9-5.6c5.2-0.1,10.3,1.8,14.1,5.3l-4.4,6.3c-1.4-1.3-3-2.3-4.7-3c-1.5-0.6-3-0.9-4.6-0.8
	c-3-0.1-6,1.1-8.1,3.3c-2.2,2.3-3.4,5.4-3.3,8.6c-0.2,3.2,1,6.3,3.2,8.6c2,2.1,4.7,3.2,7.5,3.2c2.6,0.1,5.1-0.5,7.4-1.7V24.7z"/>
<path class="st0" d="M189.5,34.2c1.4,1.7,3.5,2.7,5.7,2.6c2.2,0.1,4.3-0.9,5.6-2.6c1.5-2.1,2.2-4.6,2.1-7.2V6.2h8.4v21.1
	c0,5.5-1.5,9.7-4.5,12.6c-6.6,5.9-16.6,5.9-23.2,0c-3-3-4.6-7.2-4.6-12.6V6.2h8.4V27C187.3,29.6,188,32.1,189.5,34.2z"/>
<path class="st0" d="M220.1,6.2h8.4v37.8h-8.4V6.2z"/>
<path class="st0" d="M266.6,11.1c3.6,3.3,5.4,7.9,5.4,13.7s-1.8,10.5-5.3,13.9c-3.5,3.4-8.9,5.1-16.1,5.1h-12.9V6.2h13.3
	C257.9,6.2,263.1,7.8,266.6,11.1z M260.5,33.5c2.1-1.9,3.1-4.8,3.1-8.5c0-3.7-1-6.6-3.1-8.6c-2.1-2-5.2-3-9.5-3h-4.7v23h5.4
	C255.4,36.4,258.4,35.5,260.5,33.5L260.5,33.5z"/>
<path class="st0" d="M306.5,6.2v7.5h-18.8v7.8h16.9v7.2h-16.9v7.8h19.4v7.4h-27.8V6.2H306.5L306.5,6.2z"/>
<path class="st1" d="M36.1,81.8h-2.2L13.9,55h-0.1L14,74.7c0,0.8,0,1.6,0,2.3c0,0.8,0,1.5-0.1,2.2l3.3-0.2v2H8.8v-1.5
	c0.6,0,1.2-0.1,1.7-0.4c0.4-0.2,0.7-0.5,0.9-0.9c0.2-0.4,0.3-0.8,0.4-1.2c0.1-0.4,0.1-0.8,0.1-1.2V50.7l-3.1,0.2v-2h5.5l19.6,26.2
	l0,0V54c0-1.3,0-2.4,0.1-3.3l-3.3,0.2v-2h8.5v1.5c-0.7,0-1.3,0.1-1.9,0.5c-0.4,0.3-0.7,0.7-0.9,1.2c-0.2,0.6-0.3,1.2-0.2,1.8
	c0,0.7,0,1.4,0,2.2L36.1,81.8z"/>
<path class="st1" d="M44.2,65c0-1.3,0.1-2.6,0.4-3.9c0.3-1.3,0.7-2.6,1.3-3.9c0.6-1.3,1.3-2.4,2.2-3.5c0.9-1.1,1.9-2.1,3.1-2.9
	c1.2-0.8,2.6-1.5,4-1.9c1.6-0.5,3.3-0.7,5-0.7c1.7,0,3.5,0.2,5.1,0.7c1.5,0.4,2.8,1.1,4.1,1.9c1.2,0.8,2.3,1.8,3.2,2.9
	c0.9,1.1,1.6,2.3,2.2,3.5c1.7,3.6,2.2,7.7,1.3,11.7c-0.3,1.3-0.7,2.6-1.3,3.9c-0.6,1.3-1.3,2.4-2.2,3.5c-0.9,1.1-1.9,2.1-3.1,2.9
	c-1.2,0.9-2.6,1.5-4,2c-1.6,0.5-3.3,0.7-5,0.7c-1.8,0-3.6-0.2-5.3-0.7c-1.5-0.4-2.9-1.1-4.2-1.9c-1.2-0.8-2.2-1.8-3.1-2.9
	c-0.9-1.1-1.6-2.2-2.2-3.5c-0.6-1.3-1-2.6-1.2-3.9C44.3,67.7,44.2,66.3,44.2,65z M48.7,64.2c0,2.4,0.5,4.8,1.3,7.1
	c0.4,1.2,1,2.3,1.6,3.3c0.6,1,1.4,2,2.3,2.8c0.9,0.8,1.9,1.4,3,1.9c1.2,0.5,2.5,0.7,3.7,0.7c2.3,0,4.5-0.7,6.3-2.1
	c0.8-0.7,1.6-1.5,2.2-2.4c0.6-0.9,1.2-1.9,1.6-2.9c0.4-1.1,0.8-2.2,1-3.3c0.2-1.1,0.3-2.2,0.3-3.3c0-1.2-0.1-2.5-0.4-3.7
	c-0.2-1.3-0.6-2.6-1.1-3.8c-0.5-1.2-1-2.3-1.7-3.3c-0.6-1-1.4-1.9-2.3-2.7c-0.9-0.8-1.9-1.4-3-1.8c-1.1-0.4-2.4-0.6-3.6-0.6
	c-1.8,0-3.5,0.4-5,1.3c-1.4,0.8-2.6,1.9-3.6,3.3c-1,1.4-1.7,2.9-2.1,4.6C48.9,60.7,48.7,62.4,48.7,64.2L48.7,64.2z"/>
<path class="st1" d="M91.9,66.7c-0.5,0-1,0-1.6,0c-0.5,0-1.1,0-1.6-0.1v9c0,0.8,0,1.6,0,2.2c0,0.5-0.1,1-0.1,1.5l3.3-0.2v2H81.6
	v-1.5c0.7,0,1.4-0.1,2-0.5c0.4-0.3,0.8-0.7,0.9-1.2c0.2-0.6,0.3-1.2,0.3-1.8c0-0.7,0-1.4,0-2.2V54.1c0-0.6,0-1.2,0-1.8
	s0-1.1,0.1-1.5l-3.3,0.2v-2l5.2-0.1c1.8,0,3.5,0,5.3,0c1.9,0,3.8,0.2,5.7,0.6c1.4,0.3,2.7,0.9,3.9,1.6c1,0.6,1.8,1.5,2.3,2.6
	c0.5,1.1,0.7,2.2,0.7,3.4c0,0.9-0.1,1.9-0.4,2.8c-0.3,1-0.7,1.9-1.4,2.7c-0.7,0.9-1.6,1.7-2.6,2.2c-1.3,0.7-2.8,1.3-4.3,1.5
	c0.6,0.5,1.2,1,1.6,1.7c0.5,0.7,1,1.5,1.6,2.4l3.1,4.9c0.4,0.6,0.8,1.2,1.1,1.7c0.3,0.5,0.7,1,1.2,1.4c0.4,0.4,0.9,0.7,1.4,0.9
	c0.6,0.2,1.2,0.4,1.9,0.3v1.5h-5.8c-0.4-0.4-0.8-0.8-1.2-1.2c-0.4-0.4-0.7-0.8-1-1.2s-0.6-0.9-1-1.3c-0.3-0.4-0.6-0.9-0.9-1.4
	L95,71.1c-0.2-0.3-0.4-0.7-0.7-1.1c-0.2-0.4-0.5-0.8-0.7-1.2c-0.3-0.4-0.5-0.8-0.8-1.1C92.5,67.4,92.3,67,91.9,66.7z M88.8,64.9
	l1.4,0.1c0.5,0,1,0,1.5,0c1.2,0,2.3-0.2,3.4-0.5c1-0.2,1.9-0.7,2.7-1.3c0.8-0.6,1.4-1.4,1.8-2.2c0.4-1.1,0.7-2.2,0.6-3.4
	c0.1-2-0.6-3.9-2-5.2c-1.3-1.2-3.4-1.8-6.2-1.8c-0.7-0.1-1.4,0.1-2,0.4c-0.4,0.3-0.8,0.6-0.9,1.1c-0.2,0.6-0.3,1.1-0.3,1.7
	c0,0.7,0,1.4,0,2.2L88.8,64.9L88.8,64.9z"/>
<path class="st1" d="M135.5,58.6c0-1.2-0.1-2.4-0.3-3.6c-0.1-0.9-0.5-1.8-0.9-2.5c-0.4-0.7-1.1-1.2-1.8-1.5
	c-0.9-0.4-1.9-0.5-2.9-0.5h-3.9l-0.1,25.1c0,1.2,0,2.4-0.1,3.6l3.8-0.2v2h-10.8v-1.5c0.7,0,1.3-0.1,1.9-0.5c0.4-0.3,0.8-0.7,0.9-1.2
	c0.2-0.6,0.3-1.2,0.3-1.8v-2.2l0.1-23.3h-4.8c-0.8,0-1.7,0.1-2.5,0.5c-0.7,0.3-1.2,0.8-1.6,1.5c-0.5,0.8-0.8,1.6-0.9,2.5
	c-0.2,1.2-0.3,2.4-0.3,3.5h-1.7l0.3-9.7h26.8l0.3,9.7L135.5,58.6L135.5,58.6z"/>
<path class="st1" d="M165.4,65.5l-16.5,0.2v9.9c0,0.8,0,1.6,0,2.2c0,0.5-0.1,1-0.1,1.5l3.3-0.2v2h-10.4v-1.5c0.7,0,1.4-0.1,2-0.5
	c0.4-0.3,0.8-0.7,0.9-1.2c0.2-0.6,0.3-1.2,0.3-1.8c0-0.7,0-1.4,0-2.2V54c0-0.6,0-1.2,0-1.8s0-1.1,0.1-1.5l-3.3,0.2v-2H152v1.5
	c-0.7,0-1.4,0.1-2,0.5c-0.4,0.3-0.7,0.7-0.9,1.2c-0.2,0.6-0.3,1.2-0.3,1.8c0,0.7,0,1.4,0,2.2v7.7h16.5V54c0-1.3,0-2.4,0.1-3.3
	l-3.3,0.2v-2h10.4v1.5c-0.7,0-1.3,0.1-1.9,0.5c-0.4,0.3-0.8,0.7-0.9,1.2c-0.2,0.6-0.3,1.2-0.3,1.8c0,0.7,0,1.4,0,2.2v19.6
	c0,1.2,0,2.4-0.1,3.6l3.3-0.2v2h-10.3v-1.5c0.7,0,1.4-0.1,2-0.5c0.4-0.3,0.8-0.7,0.9-1.2c0.2-0.6,0.3-1.2,0.3-1.8c0-0.7,0-1.4,0-2.2
	L165.4,65.5L165.4,65.5z"/>
<path class="st1" d="M176.2,48.9h11.2v1.5c-0.7,0-1.4,0.1-2.1,0.3c-0.5,0.1-0.8,0.4-1.1,0.8c-0.2,0.5-0.3,1-0.2,1.5
	c0.1,0.8,0.2,1.5,0.5,2.3c0.9,2.8,1.9,6.1,3.2,9.8c1.3,3.8,2.1,5.9,2.3,6.6c0.2,0.7,0.4,1.3,0.7,2h0.1c0.1-0.5,0.3-1.1,0.5-1.6
	l0.5-1.7c0.2-0.6,0.7-2.2,1.5-4.8c0.9-2.7,1.5-4.6,1.9-5.9l1.2-3.6c0.4-1.1,1.2-3.6,2.4-7.5h1.5c1.5,4.7,2.4,7.7,2.8,8.8
	c0.4,1.1,1.3,3.9,2.8,8.2c1.4,4.3,2.4,7.2,2.8,8.7h0.1c3.2-9.6,5.1-15.5,5.8-17.7c0.7-2.2,1.2-3.6,1.4-4.2c0.2-0.6,0.5-1.2,0.8-1.7
	l-3.7,0.2v-2h9.3v1.5c-0.7,0.1-1.3,0.2-1.9,0.4c-0.5,0.2-1,0.6-1.4,1c-0.5,0.6-0.9,1.3-1.1,2c-0.4,0.9-1.7,4.7-4,11.5
	s-4.2,12.2-5.6,16.2H207L198.4,57l-8.1,24.6H189c-5.7-17.1-8.7-26-8.9-26.6c-0.2-0.6-0.4-1.2-0.6-1.7c-0.2-0.5-0.3-0.9-0.4-1.3
	c-0.1-0.4-0.2-0.8-0.2-1.1l-2.6,0.1L176.2,48.9L176.2,48.9z"/>
<path class="st1" d="M232.3,75.8c0,0.9,0,1.6,0,2.2c0,0.5-0.1,1-0.1,1.4l8.8-0.1c0.9,0,1.8-0.1,2.7-0.4c0.8-0.2,1.5-0.6,2.1-1.2
	c0.6-0.6,1.1-1.4,1.3-2.2c0.3-1.1,0.5-2.2,0.5-3.4h1.6l-0.3,9h-23.8v-1.5c0.6,0,1.2-0.1,1.7-0.3c0.4-0.2,0.8-0.5,1-0.9
	c0.2-0.4,0.4-0.9,0.4-1.3c0.1-0.5,0.1-1.1,0.1-1.7V54c0-0.6,0-1.2,0-1.8s0-1.1,0.1-1.5l-3.3,0.2v-2h22.1l0.2,8.1h-1.5
	c0-1.1-0.1-2.2-0.5-3.2c-0.2-0.8-0.7-1.4-1.3-2c-0.5-0.5-1.2-0.8-1.9-1c-0.8-0.2-1.6-0.2-2.3-0.2l-4.2,0.1c-0.7,0-1.4,0.1-2,0.4
	c-0.4,0.2-0.8,0.6-1,1c-0.2,0.5-0.4,1.1-0.4,1.7c0,0.7-0.1,1.5-0.1,2.4v7.4h8.6l-0.3-4h2v9.7h-1.5c0-0.7-0.1-1.4-0.2-2.2
	c-0.1-0.5-0.4-0.9-0.7-1.2c-0.4-0.3-0.8-0.5-1.3-0.6c-0.6-0.1-1.2-0.1-1.9-0.1h-0.6l-4,0.2L232.3,75.8L232.3,75.8z"/>
<path class="st1" d="M257.4,81.4H255l-0.3-9.8h1.8c0.1,1.2,0.4,2.5,0.9,3.6c0.5,1,1.1,1.9,1.9,2.6c0.8,0.7,1.8,1.2,2.8,1.6
	c1.1,0.4,2.3,0.5,3.4,0.5c0.9,0,1.7-0.1,2.5-0.4c0.8-0.2,1.5-0.6,2.1-1.1c0.6-0.5,1.1-1.1,1.4-1.8c0.4-0.8,0.5-1.6,0.5-2.5
	c0-1-0.2-2-0.7-2.9c-0.5-0.8-1.2-1.6-2-2.1c-0.9-0.7-1.8-1.2-2.8-1.7l-3.2-1.5c-1.1-0.5-2.1-1-3.2-1.6c-1-0.6-1.9-1.2-2.8-2
	c-0.8-0.7-1.5-1.6-2-2.6c-0.5-1.1-0.8-2.3-0.7-3.5c0-0.6,0.1-1.1,0.2-1.7c0.1-0.6,0.3-1.2,0.6-1.8c0.3-0.6,0.7-1.2,1.1-1.7
	c0.5-0.6,1.1-1.1,1.7-1.5c0.8-0.5,1.6-0.8,2.5-1c1.1-0.3,2.2-0.4,3.3-0.4c0.6,0,1.3,0,1.9,0.1c0.7,0.1,1.4,0.2,2.1,0.4
	c0.7,0.2,1.4,0.4,2.1,0.7c0.7,0.3,1.4,0.7,2,1.2l-0.2-2h2.3v10.1h-1.7c-0.1-1.1-0.3-2.2-0.6-3.2c-0.3-1-0.9-2-1.5-2.8
	c-0.7-0.8-1.5-1.5-2.5-1.9c-1.1-0.5-2.3-0.8-3.5-0.7c-0.9,0-1.7,0.1-2.5,0.4c-0.7,0.3-1.3,0.7-1.8,1.2c-0.5,0.5-0.9,1.1-1.1,1.7
	c-0.3,0.7-0.4,1.4-0.4,2.1c0,1,0.2,1.9,0.8,2.7c0.5,0.8,1.2,1.5,2,2.1c0.9,0.6,1.8,1.2,2.8,1.6l3.2,1.5c1.1,0.5,2.2,1,3.2,1.6
	c1,0.6,2,1.2,2.8,2c0.8,0.7,1.5,1.6,2,2.6c0.5,1.1,0.8,2.3,0.8,3.6c0,1.2-0.2,2.4-0.7,3.5c-0.5,1.1-1.2,2-2.1,2.8
	c-1,0.8-2.1,1.4-3.4,1.8c-1.5,0.5-3,0.7-4.6,0.7c-0.7,0-1.4-0.1-2.1-0.2c-0.7-0.1-1.5-0.2-2.2-0.4c-0.7-0.2-1.4-0.4-2.1-0.7
	c-0.6-0.3-1.3-0.6-1.9-1L257.4,81.4z"/>
<path class="st1" d="M305.6,58.6c0-1.2-0.1-2.4-0.3-3.6c-0.1-0.9-0.5-1.8-0.9-2.5c-0.4-0.7-1.1-1.2-1.8-1.5
	c-0.9-0.4-1.9-0.5-2.9-0.5h-3.9l-0.1,25.1c0,1.2,0,2.4-0.1,3.6l3.8-0.2v2h-10.8v-1.5c0.7,0,1.3-0.1,1.9-0.5c0.4-0.3,0.8-0.7,0.9-1.2
	c0.2-0.6,0.3-1.2,0.3-1.8v-2.2l0.1-23.3H287c-0.8,0-1.7,0.1-2.5,0.5c-0.7,0.3-1.2,0.8-1.6,1.5c-0.5,0.8-0.8,1.6-0.9,2.5
	c-0.2,1.2-0.3,2.4-0.3,3.5H280l0.3-9.7h26.8l0.3,9.7L305.6,58.6L305.6,58.6z"/>
</svg>
