<svg id="Layer_1" data-name="Layer 1" xmlns="http://www.w3.org/2000/svg" viewBox="0 0 612 144"><defs><style>.cls-1{fill:#f33;}.cls-2{fill:#6d6e71;}</style></defs><title>AG_NW_logos_1</title><path d="M50.89,85l-3-6.95H34.42l-3,6.95H23.8L37.69,52.87h6.95L58.53,85H50.89ZM41.18,62.44l-4,9.34h8.05Z"/><path d="M88.33,63.54q0,7.73-6.12,10L90.36,85H81.53L74.4,74.77h-5V85H62.25V52.87H74.44q7.5,0,10.69,2.53T88.33,63.54Zm-8.65,3.82A4.86,4.86,0,0,0,81,63.57Q81,61,79.64,60t-4.83-1H69.43v9.52h5.24Q78.35,68.56,79.69,67.36Z"/><path d="M108.67,59.08V85h-7.18V59.08H92.38V52.87h25.39v6.21h-9.11Z"/><path class="cls-1" d="M152.37,68.65h7.22V80.06q-4.78,5.34-13.25,5.34a16.36,16.36,0,0,1-11.89-4.69,15.85,15.85,0,0,1-4.81-11.84,16,16,0,0,1,4.9-11.94,16.31,16.31,0,0,1,11.82-4.78,17.49,17.49,0,0,1,12,4.55l-3.73,5.38a14.23,14.23,0,0,0-4-2.6,10.68,10.68,0,0,0-3.93-.71,9.42,9.42,0,0,0-6.9,2.78A9.87,9.87,0,0,0,137,68.88a10,10,0,0,0,2.69,7.29,8.69,8.69,0,0,0,6.42,2.74,12.32,12.32,0,0,0,6.21-1.43V68.65Z"/><path class="cls-1" d="M174.49,76.72A5.88,5.88,0,0,0,179.32,79a5.81,5.81,0,0,0,4.81-2.23,9.55,9.55,0,0,0,1.77-6.09V52.87h7.18v18q0,7-3.86,10.74a14.92,14.92,0,0,1-19.8,0q-3.89-3.77-3.89-10.72v-18h7.18V70.63A9.46,9.46,0,0,0,174.49,76.72Z"/><path class="cls-1" d="M200.53,52.87h7.18V85h-7.18V52.87Z"/><path class="cls-1" d="M240.18,57.08q4.6,4.21,4.6,11.71t-4.49,11.87Q235.81,85,226.61,85h-11V52.87H227Q235.58,52.87,240.18,57.08Zm-5.27,19.11q2.64-2.48,2.65-7.22t-2.65-7.29q-2.65-2.55-8.12-2.55h-4V78.68h4.55Q232.27,78.68,234.91,76.19Z"/><path class="cls-1" d="M274.17,52.87v6.39h-16v6.62h14.4V72h-14.4v6.67h16.51V85H251V52.87h23.18Z"/><path class="cls-2" d="M316.79,85.77h-2.22l-20-26.84h-0.07l0.16,19.72q0,1.19,0,2.33t-0.08,2.24l3.32-.18v2H289.5v-1.5a3.17,3.17,0,0,0,1.66-.37,2.51,2.51,0,0,0,.91-0.91,3.16,3.16,0,0,0,.38-1.17,9.61,9.61,0,0,0,.08-1.17l0-25.26-3.08.2v-2H295L314.56,79h0l0-21.07q0-1.93.13-3.33l-3.3.2v-2H320v1.5a3.7,3.7,0,0,0-1.94.48,2.31,2.31,0,0,0-.9,1.18,5.16,5.16,0,0,0-.25,1.75q0,1,0,2.25Z"/><path class="cls-2" d="M324,68.92a18.82,18.82,0,0,1,.43-3.93,18,18,0,0,1,1.3-3.87A17.06,17.06,0,0,1,328,57.6a15,15,0,0,1,3.1-2.87,14.74,14.74,0,0,1,4-1.94,16.46,16.46,0,0,1,5-.71,17.1,17.1,0,0,1,5.11.72,15.75,15.75,0,0,1,4.12,1.94,14.33,14.33,0,0,1,3.16,2.88,17.44,17.44,0,0,1,2.22,3.53A17.89,17.89,0,0,1,356,72.82a19,19,0,0,1-1.3,3.86,17,17,0,0,1-2.19,3.53,14.67,14.67,0,0,1-3.11,2.89,15.2,15.2,0,0,1-4,2,16.12,16.12,0,0,1-5,.72,18.51,18.51,0,0,1-5.27-.7,15.49,15.49,0,0,1-4.17-1.9,13.69,13.69,0,0,1-3.13-2.83,16.17,16.17,0,0,1-2.16-3.49,18,18,0,0,1-1.25-3.9A20.62,20.62,0,0,1,324,68.92Zm4.51-.84a21.21,21.21,0,0,0,1.27,7.13,18.44,18.44,0,0,0,1.62,3.34,12.21,12.21,0,0,0,2.31,2.76,10.74,10.74,0,0,0,3,1.88,9.63,9.63,0,0,0,3.74.7,9.88,9.88,0,0,0,6.29-2.15,11,11,0,0,0,2.2-2.36,14.8,14.8,0,0,0,1.57-2.92,17.23,17.23,0,0,0,1-3.34,18.43,18.43,0,0,0,.33-3.33,21.26,21.26,0,0,0-.36-3.69,19.66,19.66,0,0,0-1.06-3.79,18.1,18.1,0,0,0-1.71-3.3,12.59,12.59,0,0,0-2.34-2.67,10.53,10.53,0,0,0-3-1.79,9.44,9.44,0,0,0-3.54-.65,9.59,9.59,0,0,0-5,1.26,11.27,11.27,0,0,0-3.55,3.28A14.83,14.83,0,0,0,329.26,63,18.78,18.78,0,0,0,328.56,68.08Z"/><path class="cls-2" d="M370.9,70.65q-0.76,0-1.55,0t-1.57-.08v9q0,1.26,0,2.16a13.25,13.25,0,0,1-.12,1.48l3.32-.18v2H360.59v-1.5a3.85,3.85,0,0,0,2-.47,2.3,2.3,0,0,0,.92-1.17,5.33,5.33,0,0,0,.28-1.76q0-1,0-2.24V58q0-.94,0-1.79t0.12-1.54l-3.32.2v-2l5.23-.07q2.63,0,5.3,0a26.87,26.87,0,0,1,5.69.64A11.5,11.5,0,0,1,380.7,55a6.46,6.46,0,0,1,2.22,2.56,7.92,7.92,0,0,1,.71,3.41,11.08,11.08,0,0,1-.36,2.75,7.34,7.34,0,0,1-1.33,2.66,9.09,9.09,0,0,1-2.64,2.25A14,14,0,0,1,375,70.2a7.15,7.15,0,0,1,1.62,1.67q0.72,1,1.57,2.36l3.14,4.93q0.58,0.92,1.12,1.72a7.72,7.72,0,0,0,1.18,1.38,5,5,0,0,0,1.44.92,4.79,4.79,0,0,0,1.88.34V85h-5.79a15.08,15.08,0,0,1-1.21-1.17q-0.54-.58-1-1.21T378,81.35q-0.45-.66-0.94-1.43L374,75q-0.31-.49-0.65-1.07t-0.72-1.16q-0.38-.58-0.81-1.13A9,9,0,0,0,370.9,70.65Zm-3.12-1.8,1.38,0.08a13.84,13.84,0,0,0,1.47,0,15.54,15.54,0,0,0,3.45-.48,7.51,7.51,0,0,0,2.7-1.29,5.86,5.86,0,0,0,1.76-2.26,8.14,8.14,0,0,0,.63-3.38,6.61,6.61,0,0,0-2-5.22q-2-1.76-6.23-1.76a3.86,3.86,0,0,0-2,.39,2.14,2.14,0,0,0-.92,1.11,5.11,5.11,0,0,0-.28,1.73q0,1,0,2.25v8.85Z"/><path class="cls-2" d="M413.57,62.54a23.6,23.6,0,0,0-.31-3.56,6.49,6.49,0,0,0-.94-2.52A4.1,4.1,0,0,0,410.49,55a7.43,7.43,0,0,0-2.92-.49l-3.89,0-0.07,25.06a35.18,35.18,0,0,1-.13,3.64L407.3,83v2H396.5v-1.5a3.64,3.64,0,0,0,1.93-.49,2.41,2.41,0,0,0,.92-1.2,5.24,5.24,0,0,0,.27-1.76V77.88l0.07-23.33-4.76,0a5.62,5.62,0,0,0-2.46.48,3.94,3.94,0,0,0-1.63,1.47,7,7,0,0,0-.91,2.48,19.47,19.47,0,0,0-.28,3.54h-1.71l0.27-9.73H415l0.27,9.73h-1.73Z"/><path class="cls-2" d="M442.57,69.46l-16.46.2v9.9q0,1.26,0,2.16a13.25,13.25,0,0,1-.12,1.48l3.32-.18v2H418.92v-1.5a3.85,3.85,0,0,0,2-.47,2.3,2.3,0,0,0,.92-1.17,5.34,5.34,0,0,0,.28-1.77q0-1,0-2.24V58q0-.94,0-1.79t0.12-1.54l-3.32.2v-2h10.35v1.5a3.77,3.77,0,0,0-2,.48A2.36,2.36,0,0,0,426.4,56a5.33,5.33,0,0,0-.28,1.75q0,1,0,2.25v7.65h16.46V58q0-1.94.13-3.33l-3.32.2v-2h10.35v1.5a3.79,3.79,0,0,0-1.94.48,2.34,2.34,0,0,0-.93,1.18,5.3,5.3,0,0,0-.28,1.75q0,1,0,2.25V79.56a35.23,35.23,0,0,1-.13,3.64l3.3-.18v2H439.38v-1.5a3.92,3.92,0,0,0,2-.47,2.28,2.28,0,0,0,.93-1.17,5.34,5.34,0,0,0,.28-1.77q0-1,0-2.24V69.46Z"/><path class="cls-2" d="M452.56,52.82h11.16v1.53a7.88,7.88,0,0,0-2.12.34,1.86,1.86,0,0,0-1.09.85,2.7,2.7,0,0,0-.24,1.52,12.92,12.92,0,0,0,.46,2.3q1.28,4.2,3.22,9.83t2.28,6.58q0.34,1,.67,2H467q0.22-.76.49-1.64L468,74.45q0.26-.83,1.54-4.81t1.9-5.86l1.17-3.58q0.55-1.7,2.37-7.47h1.48q2.25,7.1,2.83,8.8t2.75,8.18q2.17,6.47,2.82,8.65H485q4.76-14.42,5.83-17.73t1.42-4.22a12.11,12.11,0,0,1,.8-1.7l-3.68.16v-2h9.34v1.53a8.54,8.54,0,0,0-1.93.42,3.21,3.21,0,0,0-1.36,1,8.29,8.29,0,0,0-1.14,2q-0.55,1.28-4,11.52t-5.59,16.19h-1.37l-8.6-24.59-8.11,24.59H465.3q-8.6-25.67-8.93-26.6t-0.56-1.67q-0.24-.74-0.39-1.34t-0.25-1.11l-2.61.11v-2Z"/><path class="cls-2" d="M507.75,79.72q0,1.28,0,2.15a13,13,0,0,1-.12,1.45l8.8-.13a10.39,10.39,0,0,0,2.72-.37,4.94,4.94,0,0,0,2.08-1.17,5.35,5.35,0,0,0,1.34-2.18,10.5,10.5,0,0,0,.47-3.4h1.57l-0.27,9H500.56V83.5a4.06,4.06,0,0,0,1.74-.35,2.21,2.21,0,0,0,1-.89,3.42,3.42,0,0,0,.39-1.34q0.08-.77.08-1.72V58q0-.94,0-1.79t0.12-1.54l-3.32.2v-2h22.12l0.22,8.06h-1.5a9.57,9.57,0,0,0-.46-3.23,4.85,4.85,0,0,0-1.26-2,4.23,4.23,0,0,0-1.88-1,10,10,0,0,0-2.34-.26l-4.25.07a5.41,5.41,0,0,0-2,.4,2.19,2.19,0,0,0-1,1,4.22,4.22,0,0,0-.39,1.67q-0.06,1-.06,2.43v7.41h8.63l-0.34-4h2v9.68h-1.5a7.79,7.79,0,0,0-.24-2.15,2.54,2.54,0,0,0-.74-1.24,2.59,2.59,0,0,0-1.28-.57,11.14,11.14,0,0,0-1.87-.13h-0.65l-4,.16V79.72Z"/><path class="cls-2" d="M532,85.38h-2.38l-0.27-9.79h1.77a9.66,9.66,0,0,0,.88,3.58,7.81,7.81,0,0,0,1.94,2.57,8.18,8.18,0,0,0,2.8,1.56,10.8,10.8,0,0,0,3.41.53,8.6,8.6,0,0,0,2.55-.37,6.28,6.28,0,0,0,2.11-1.1,5.22,5.22,0,0,0,1.44-1.81,5.54,5.54,0,0,0,.53-2.47,5.45,5.45,0,0,0-.74-2.9A7.83,7.83,0,0,0,544,73a16.25,16.25,0,0,0-2.79-1.68l-3.18-1.5q-1.62-.75-3.18-1.59a14.05,14.05,0,0,1-2.79-2,8.79,8.79,0,0,1-2-2.59,7.8,7.8,0,0,1-.74-3.53,8.59,8.59,0,0,1,.18-1.68,8.08,8.08,0,0,1,.59-1.8,8.27,8.27,0,0,1,1.1-1.74A6.8,6.8,0,0,1,533,53.48a9.16,9.16,0,0,1,2.45-1,12.65,12.65,0,0,1,3.28-.38,17.37,17.37,0,0,1,1.91.11,14.82,14.82,0,0,1,2.06.38,13.26,13.26,0,0,1,2.08.73,10.6,10.6,0,0,1,2,1.16l-0.18-2h2.34V62.56h-1.66a12.78,12.78,0,0,0-.64-3.23,8.5,8.5,0,0,0-1.54-2.77,7.6,7.6,0,0,0-2.49-1.94,7.83,7.83,0,0,0-3.5-.73,6.83,6.83,0,0,0-2.54.44,5.38,5.38,0,0,0-1.84,1.18,5,5,0,0,0-1.12,1.72,5.61,5.61,0,0,0-.38,2.06,4.9,4.9,0,0,0,.75,2.73,7.82,7.82,0,0,0,2,2.06,17.27,17.27,0,0,0,2.81,1.64l3.21,1.5q1.64,0.75,3.21,1.62a14.38,14.38,0,0,1,2.81,2,9,9,0,0,1,2,2.64A7.84,7.84,0,0,1,550.7,77a8.5,8.5,0,0,1-.72,3.52,7.69,7.69,0,0,1-2.09,2.76,9.89,9.89,0,0,1-3.38,1.81,14.81,14.81,0,0,1-4.57.65,16,16,0,0,1-2.12-.15,16.58,16.58,0,0,1-2.16-.44,14.1,14.1,0,0,1-2.07-.74,11.93,11.93,0,0,1-1.85-1Z"/><path class="cls-2" d="M579.36,62.54A23.6,23.6,0,0,0,579,59a6.49,6.49,0,0,0-.94-2.52A4.1,4.1,0,0,0,576.28,55a7.43,7.43,0,0,0-2.92-.49l-3.89,0-0.07,25.06a35.18,35.18,0,0,1-.13,3.64l3.82-.18v2h-10.8v-1.5a3.64,3.64,0,0,0,1.93-.49,2.41,2.41,0,0,0,.92-1.2,5.24,5.24,0,0,0,.27-1.76V77.88l0.07-23.33-4.76,0a5.62,5.62,0,0,0-2.46.48,3.94,3.94,0,0,0-1.63,1.47,7,7,0,0,0-.91,2.48,19.47,19.47,0,0,0-.28,3.54h-1.71L554,52.82h26.82l0.27,9.73h-1.73Z"/></svg>