<?xml version="1.0" encoding="utf-8"?>
<!-- Generator: Adobe Illustrator 19.2.0, SVG Export Plug-In . SVG Version: 6.00 Build 0)  -->
<svg version="1.1" id="Layer_1" xmlns="http://www.w3.org/2000/svg" xmlns:xlink="http://www.w3.org/1999/xlink" x="0px" y="0px"
	 viewBox="0 0 162 164" style="enable-background:new 0 0 162 164;" xml:space="preserve">
<style type="text/css">
	.st0{fill:#DCDDDE;}
	.st1{fill:#6D6E71;}
	.st2{fill:#231F20;}
	.st3{fill:#FF3333;}
</style>
<title>AG_NW_logos_1</title>
<circle class="st0" cx="81" cy="83" r="76.8"/>
<path class="st1" d="M63.8,131.4h-2.7L37,99h-0.1l0.2,23.8c0,1,0,1.9,0,2.8s0,1.8-0.1,2.7l4-0.2v2.4H30.8v-1.8c0.7,0,1.4-0.1,2-0.4
	c0.5-0.3,0.8-0.6,1.1-1.1c0.2-0.4,0.4-0.9,0.5-1.4c0.1-0.5,0.1-0.9,0.1-1.4l0-30.5l-3.7,0.2v-2.4h6.6l23.7,31.6h0.1l0.1-25.4
	c0-1.6,0.1-2.9,0.2-4l-4,0.2v-2.4h10.2v1.8c-0.8,0-1.6,0.2-2.3,0.6c-0.5,0.3-0.9,0.8-1.1,1.4c-0.2,0.7-0.3,1.4-0.3,2.1
	c0,0.8,0,1.7,0,2.7L63.8,131.4z"/>
<path class="st1" d="M72.9,91.7h13.5v1.8c-0.9,0-1.7,0.2-2.6,0.4c-0.5,0.2-1,0.5-1.3,1c-0.3,0.6-0.4,1.2-0.3,1.8
	c0.1,0.9,0.3,1.9,0.6,2.8c1,3.4,2.3,7.3,3.9,11.9c1.6,4.5,2.5,7.2,2.8,7.9c0.3,0.8,0.5,1.6,0.8,2.4h0.1c0.2-0.6,0.4-1.3,0.6-2
	l0.6-2.1c0.2-0.7,0.8-2.6,1.9-5.8c1-3.2,1.8-5.6,2.3-7.1l1.4-4.3c0.4-1.3,1.4-4.3,2.9-9h1.8c1.8,5.7,2.9,9.3,3.4,10.6
	s1.6,4.7,3.3,9.9c1.7,5.2,2.9,8.7,3.4,10.4h0.1c3.8-11.6,6.2-18.7,7-21.4c0.8-2.7,1.4-4.4,1.7-5.1c0.3-0.7,0.6-1.4,1-2l-4.4,0.2
	v-2.5h11.3v1.8c-0.8,0.1-1.6,0.2-2.3,0.5c-0.6,0.2-1.2,0.7-1.6,1.2c-0.6,0.7-1,1.5-1.4,2.4c-0.4,1-2,5.7-4.8,13.9
	c-2.7,8.2-5,14.8-6.8,19.5H110l-10.4-29.7l-9.8,29.7h-1.6C81.3,110.4,77.7,99.7,77.5,99c-0.3-0.7-0.5-1.4-0.7-2
	c-0.2-0.6-0.3-1.1-0.5-1.6c-0.1-0.5-0.2-0.9-0.3-1.4l-3.1,0.1V91.7z"/>
<path class="st2" d="M72.9,84.9l-4.6-10.8H47.3l-4.7,10.8H30.8l21.6-50h10.8l21.6,50L72.9,84.9L72.9,84.9z M57.8,49.8l-6.3,14.5
	h12.5L57.8,49.8z"/>
<path class="st3" d="M117.3,59.5h11.2v17.7c-5,5.5-11.8,8.3-20.6,8.3c-6.9,0.2-13.6-2.5-18.5-7.3c-5-4.8-7.7-11.5-7.5-18.4
	c-0.2-7,2.6-13.7,7.6-18.6c4.9-4.9,11.5-7.6,18.4-7.4c6.9-0.1,13.6,2.4,18.7,7.1l-5.8,8.4c-1.8-1.7-3.9-3-6.2-4
	c-1.9-0.8-4-1.1-6.1-1.1c-4-0.1-7.9,1.5-10.7,4.3c-2.9,2.9-4.4,6.7-4.4,11.4c0,4.7,1.4,8.5,4.2,11.3c2.6,2.8,6.2,4.3,10,4.2
	c3.4,0.1,6.7-0.6,9.6-2.2L117.3,59.5L117.3,59.5z"/>
</svg>
