<svg id="Layer_1" data-name="Layer 1" xmlns="http://www.w3.org/2000/svg" viewBox="0 0 216 216"><defs><style>.cls-1{fill:#dcddde;}.cls-2{fill:#6d6e71;}.cls-3{fill:#231f20;}.cls-4{fill:#f33;}</style></defs><title>AG_NW_logos_1</title><circle class="cls-1" cx="108" cy="108" r="76.76"/><path class="cls-2" d="M90.75,156.43H88.07L64,124H63.89l0.19,23.79q0,1.44,0,2.81T64,153.34l4-.22v2.41H57.82v-1.82a3.84,3.84,0,0,0,2-.45,3,3,0,0,0,1.1-1.1,3.83,3.83,0,0,0,.46-1.41,11.52,11.52,0,0,0,.09-1.41l0.05-30.48-3.71.24v-2.44h6.61L88.07,148.3h0.05l0.05-25.42q0-2.33.16-4l-4,.24v-2.44H94.57v1.82a4.48,4.48,0,0,0-2.34.58,2.8,2.8,0,0,0-1.08,1.42,6.2,6.2,0,0,0-.3,2.12q0,1.22,0,2.71Z"/><path class="cls-2" d="M99.86,116.67h13.47v1.84a9.52,9.52,0,0,0-2.56.41,2.25,2.25,0,0,0-1.31,1,3.24,3.24,0,0,0-.28,1.83,15.46,15.46,0,0,0,.56,2.78q1.54,5.07,3.89,11.86t2.75,7.94q0.41,1.15.81,2.45h0.11q0.27-.92.6-2l0.64-2.06q0.31-1,1.86-5.8t2.29-7.07l1.41-4.32q0.66-2,2.86-9h1.79q2.71,8.57,3.42,10.62t3.32,9.87q2.61,7.81,3.4,10.43H139q5.75-17.4,7-21.4t1.71-5.1a14.63,14.63,0,0,1,1-2l-4.44.19v-2.47h11.28v1.84a10.3,10.3,0,0,0-2.33.5,3.86,3.86,0,0,0-1.64,1.21,10,10,0,0,0-1.38,2.41q-0.67,1.54-4.78,13.9t-6.75,19.54H137L126.62,126.4l-9.78,29.68h-1.6q-10.38-31-10.77-32.1t-0.68-2q-0.28-.89-0.47-1.61T103,119l-3.14.14v-2.47Z"/><path class="cls-3" d="M99.92,109.91L95.28,99.11H74.33l-4.65,10.79H57.82l21.59-50H90.2l21.59,50H99.92ZM84.84,74.81L78.55,89.32H91.06Z"/><path class="cls-4" d="M144.31,84.46h11.22v17.73q-7.44,8.29-20.59,8.29a25.41,25.41,0,0,1-18.48-7.29A24.64,24.64,0,0,1,109,84.78a24.87,24.87,0,0,1,7.61-18.55A25.34,25.34,0,0,1,135,58.8a27.17,27.17,0,0,1,18.69,7.08l-5.79,8.36a22.14,22.14,0,0,0-6.18-4,16.6,16.6,0,0,0-6.11-1.11,14.64,14.64,0,0,0-10.72,4.32q-4.36,4.33-4.36,11.4t4.18,11.33a13.5,13.5,0,0,0,10,4.25,19.13,19.13,0,0,0,9.65-2.22V84.46Z"/></svg>