<svg id="Layer_1" data-name="Layer 1" xmlns="http://www.w3.org/2000/svg" viewBox="0 0 100 100"><defs><style>.cls-1{fill:#6d6e71;}</style></defs><title>instagram</title><path class="cls-1" d="M69.5,20.21h-39A11,11,0,0,0,19.41,31V69A11,11,0,0,0,30.5,79.79h39A11,11,0,0,0,80.59,69V31A11,11,0,0,0,69.5,20.21Zm-7.2,8.37a2.39,2.39,0,0,1,2.51-2.37H72.1a2.41,2.41,0,0,1,2.47,2,2,2,0,0,1,0,.38q0,3.49,0,7a2.35,2.35,0,0,1-2,2.32,2.66,2.66,0,0,1-.47,0H68.43c-1.21,0-2.43,0-3.65,0a2.45,2.45,0,0,1-2.47-2,2.34,2.34,0,0,1,0-.33Q62.3,32.06,62.3,28.58ZM50,37.89c6.79,0,12.3,5.23,12.3,11.68S56.8,61.24,50,61.24,37.72,56,37.71,49.57,43.11,37.9,50,37.89Zm24.59,7.33V66c0,1.53,0,3.06,0,4.6a2.34,2.34,0,0,1-2,2.29,3.51,3.51,0,0,1-.69.05H28.08a3.32,3.32,0,0,1-1-.12,2.34,2.34,0,0,1-1.7-2c0-.13,0-0.25,0-0.38V44.91H31a17.62,17.62,0,0,0,1.9,13.83,18.8,18.8,0,0,0,7.68,7.21,20.42,20.42,0,0,0,25.3-5.28,17.86,17.86,0,0,0,3.22-15.75h5.53v0.31Z"/></svg>