<svg id="Layer_1" data-name="Layer 1" xmlns="http://www.w3.org/2000/svg" viewBox="0 0 100 100"><defs><style>.cls-1{fill:#6d6e71;}</style></defs><title>twitter</title><path class="cls-1" d="M83.62,29.14a27.37,27.37,0,0,1-7.92,2.17,13.82,13.82,0,0,0,6.06-7.63A27.63,27.63,0,0,1,73,27,13.8,13.8,0,0,0,49.5,39.62,39.17,39.17,0,0,1,21.06,25.2a13.8,13.8,0,0,0,4.27,18.42,13.73,13.73,0,0,1-6.25-1.73v0.17A13.81,13.81,0,0,0,30.15,55.6a13.84,13.84,0,0,1-3.63.49,13.51,13.51,0,0,1-2.6-.25,13.81,13.81,0,0,0,12.89,9.58,27.7,27.7,0,0,1-17.13,5.9,28.9,28.9,0,0,1-3.29-.19,39.07,39.07,0,0,0,21.15,6.2c25.37,0,39.25-21,39.25-39.25,0-.6,0-1.2,0-1.78A28,28,0,0,0,83.62,29.14Z"/><path class="cls-1" d="M83.62,29.14a27.37,27.37,0,0,1-7.92,2.17,13.82,13.82,0,0,0,6.06-7.63A27.63,27.63,0,0,1,73,27,13.8,13.8,0,0,0,49.5,39.62,39.17,39.17,0,0,1,21.06,25.2a13.8,13.8,0,0,0,4.27,18.42,13.73,13.73,0,0,1-6.25-1.73v0.17A13.81,13.81,0,0,0,30.15,55.6a13.84,13.84,0,0,1-3.63.49,13.51,13.51,0,0,1-2.6-.25,13.81,13.81,0,0,0,12.89,9.58,27.7,27.7,0,0,1-17.13,5.9,28.9,28.9,0,0,1-3.29-.19,39.07,39.07,0,0,0,21.15,6.2c25.37,0,39.25-21,39.25-39.25,0-.6,0-1.2,0-1.78A28,28,0,0,0,83.62,29.14Z"/></svg>